<?xml version="1.0" encoding="UTF-8" standalone="no"?>
<!-- Created with Inkscape (http://www.inkscape.org/) -->

<svg
   width="250px"
   height="75px"
   viewBox="0 0 250 75"
   version="1.1"
   id="SVGRoot"
   sodipodi:docname="cizim.svg"
   inkscape:version="1.2.2 (732a01da63, 2022-12-09)"
   xmlns:inkscape="http://www.inkscape.org/namespaces/inkscape"
   xmlns:sodipodi="http://sodipodi.sourceforge.net/DTD/sodipodi-0.dtd"
   xmlns="http://www.w3.org/2000/svg"
   xmlns:svg="http://www.w3.org/2000/svg">
  <sodipodi:namedview
     id="namedview653"
     pagecolor="#ffffff"
     bordercolor="#000000"
     borderopacity="0.25"
     inkscape:showpageshadow="2"
     inkscape:pageopacity="0.0"
     inkscape:pagecheckerboard="0"
     inkscape:deskcolor="#d1d1d1"
     inkscape:document-units="px"
     showgrid="false"
     inkscape:zoom="3.8128507"
     inkscape:cx="137.95452"
     inkscape:cy="33.570682"
     inkscape:window-width="1366"
     inkscape:window-height="715"
     inkscape:window-x="1358"
     inkscape:window-y="-8"
     inkscape:window-maximized="1"
     inkscape:current-layer="layer1" />
  <defs
     id="defs648" />
  <g
     inkscape:label="Katman 1"
     inkscape:groupmode="layer"
     id="layer1">
    <g
       data-element="wrapper"
       transform="matrix(0.40256244,0,0,0.50038934,2.0846409,-78.357102)"
       id="g14">
      <g
         id="g12">
        <g
           data-element="icon"
           transform="matrix(0.26666667,0,0,0.26666667,-14.500385,141.00008)"
           id="g6">
          <path
             id="color_x5F_2"
             d="m 474.512,318.842 c -1.035,17.429 -5.173,31.398 -9.242,31.199 -4.069,-0.198 -6.529,-14.489 -5.494,-31.918 1.035,-17.429 5.173,-31.398 9.242,-31.199 4.069,0.199 6.528,14.489 5.494,31.918 z m -51.247,-37.571 c -6.983,6.043 -10.899,14.921 -13.237,23.855 -2.339,8.934 -3.317,18.178 -5.628,27.119 -2.311,8.941 -6.165,17.837 -13.092,23.945 9.273,-0.995 18.422,-3.149 27.166,-6.395 3.755,-1.394 7.565,-3.08 10.221,-6.078 4.337,-4.895 4.636,-12.022 5.243,-18.533 1.571,-16.876 6.732,-33.41 15.041,-48.183 -8.165,-4.316 -18.732,-1.773 -25.714,4.27 z m -173.329,97.843 c -2.631,-1.239 -5.974,-0.144 -8.789,0.902 -11.875,4.411 -24.276,7.835 -36.945,10.201 -10.175,1.901 -21.002,3.295 -29.245,8.614 -2.414,1.558 -4.717,3.914 -3.971,6.31 0.99,3.18 6.148,3.694 10.184,3.572 7.806,-0.237 15.612,-0.473 23.417,-0.709 10.251,-0.31 20.793,-0.674 30.253,-4.078 9.46,-3.404 17.707,-10.615 18.031,-18.995 0.086,-2.22 -0.605,-4.719 -2.935,-5.817 z M 78.041,398.611 c -4.081,-2.942 -6.897,-6.853 -10.477,-9.552 -3.884,-2.929 -10.215,-2.296 -13.438,1.248 -3.041,3.343 -5.415,7.085 -6.975,11.033 -0.656,1.658 -1.161,3.492 -0.366,5.082 1.026,2.05 3.844,3.021 6.461,3.612 6.463,1.462 13.327,1.814 20.024,1.027 2.074,-0.244 4.176,-0.608 5.997,-1.478 1.821,-0.87 3.34,-2.324 3.63,-4.02 0.477,-2.792 -2.305,-5.113 -4.856,-6.952 z m 216.586,-30.817 c -4.07,-0.199 -8.207,13.77 -9.242,31.199 -1.035,17.429 1.425,31.719 5.494,31.918 4.069,0.198 8.207,-13.77 9.242,-31.199 1.036,-17.43 -1.424,-31.72 -5.494,-31.918 z"
             fill="#cccccc"
             fill-opacity="1" />
          <path
             id="color_x5F_1"
             d="m 550.909,176.094 c -13.641,-20.908 -47.115,-33.188 -72.028,-34.769 -92.854,-5.89 -186.018,-1.845 -278.97,2.202 0,0 4.226,2.961 11.151,3.037 6.925,0.076 228.756,-1.751 269.378,6.876 40.621,8.627 75.76,26.511 55.987,77.443 -8.235,21.211 -29.855,34.901 -52.28,43.676 -11.532,-9.57 -31.694,-15.848 -57.6,-15.044 0,0 -3.679,-0.81 -10.181,-1.961 -30.924,21.299 -70.993,46.406 -103.241,58.745 -32.545,12.453 -57.553,19.458 -91.16,21.196 -31.171,1.611 -42.344,-1.716 -73.516,-0.104 -5.428,0.281 -11.592,0.138 -15.536,-2.64 l -11.648,3.245 c -69.3,23.236 -94.628,71.564 -82.384,100.874 12.244,29.309 145.144,23.811 187.308,18.695 22.917,-2.78 41.785,-9.532 54.248,-15.12 5.884,0.287 11.174,0.545 13.209,0.644 2.401,0.117 4.253,-2.111 5.46,-3.903 2.308,-3.424 4.394,-7.735 5.553,-11.702 0.736,-2.519 1.341,-5.077 1.849,-7.652 1.167,-5.919 1.83,-11.939 2.095,-17.965 0.93,-21.135 -2.191,-38.082 -7.477,-41.622 0.757,-0.46 1.522,-0.722 2.291,-0.715 6.517,0.062 10.585,18.575 9.539,42.336 -0.428,9.717 -1.897,18.584 -3.94,25.596 25.411,-13.402 85.349,-44.953 127.516,-66.683 9.042,0.441 25.501,1.243 29.494,1.438 6.757,0.329 13.395,-18.953 14.827,-43.068 1.053,-17.735 -1.01,-33.114 -4.859,-40.157 5.875,2.591 9.503,20.506 8.227,42.003 -0.36,6.058 -1.08,11.78 -2.056,16.943 11.913,-6.194 13.652,-13.799 13.447,-23.273 28.969,-17.626 52.698,-43.241 63.459,-74.894 7.909,-23.271 7.362,-39.884 -8.162,-63.677 z M 79.517,443.111 c -1.006,2.948 -4.454,4.085 -7.462,4.221 -4.901,0.221 -9.728,-1.121 -14.464,-2.451 -4.169,-1.171 -8.599,-2.508 -11.409,-5.915 -2.291,-2.778 -3.135,-6.503 -3.905,-10.073 -0.476,-2.208 -0.808,-4.909 0.848,-6.379 1.714,-1.522 4.324,-0.643 6.387,0.304 7.48,3.433 14.962,6.866 22.442,10.299 2.063,0.947 4.179,1.93 5.767,3.595 1.588,1.665 2.55,4.19 1.796,6.399 z m 3.38,-37.547 c -0.29,1.696 -1.808,3.15 -3.63,4.02 -1.821,0.87 -3.923,1.235 -5.997,1.478 -6.698,0.787 -13.561,0.435 -20.024,-1.027 -2.617,-0.592 -5.435,-1.563 -6.461,-3.612 -0.796,-1.59 -0.29,-3.424 0.366,-5.082 1.56,-3.947 3.934,-7.69 6.975,-11.033 3.224,-3.544 9.554,-4.177 13.438,-1.248 3.579,2.699 6.396,6.609 10.477,9.552 2.551,1.838 5.333,4.159 4.856,6.952 z m 154.786,23.842 c -0.252,4.227 -1.224,8.743 -3.81,11.735 -2.807,3.247 -6.816,3.965 -10.52,4.492 -14.781,2.103 -29.572,3.888 -44.364,5.356 -1.886,0.187 -4.1,0.193 -5.124,-1.666 -0.858,-1.556 -0.441,-3.871 0.561,-5.469 1.002,-1.598 2.464,-2.637 3.891,-3.601 15.774,-10.661 32.836,-18.059 50.195,-21.805 5.122,-1.105 9.481,3.664 9.218,10.032 -0.013,0.309 -0.028,0.617 -0.047,0.926 z m -2.843,-25.479 c -9.46,3.404 -20.003,3.767 -30.253,4.078 -7.805,0.236 -15.612,0.473 -23.417,0.709 -4.037,0.122 -9.195,-0.392 -10.184,-3.572 -0.746,-2.396 1.557,-4.753 3.971,-6.31 8.243,-5.319 19.07,-6.714 29.245,-8.614 12.669,-2.366 25.07,-5.791 36.945,-10.201 2.815,-1.046 6.159,-2.141 8.789,-0.902 2.331,1.098 3.021,3.597 2.935,5.818 -0.324,8.379 -8.571,15.59 -18.031,18.994 z m 65.282,-4.215 c -1.035,17.429 -5.173,31.398 -9.242,31.199 -4.069,-0.199 -6.529,-14.489 -5.494,-31.918 1.035,-17.429 5.172,-31.398 9.242,-31.199 4.069,0.198 6.529,14.488 5.494,31.918 z m 133.815,-74.528 c -0.606,6.511 -0.906,13.638 -5.243,18.533 -2.656,2.998 -6.466,4.684 -10.221,6.078 -8.743,3.246 -17.892,5.4 -27.166,6.395 6.926,-6.108 10.781,-15.004 13.092,-23.945 2.311,-8.941 3.289,-18.185 5.628,-27.119 2.339,-8.934 6.254,-17.812 13.237,-23.855 6.983,-6.043 17.549,-8.587 25.713,-4.27 -8.308,14.773 -13.469,31.306 -15.04,48.183 z m 40.575,-6.342 c -1.035,17.429 -5.173,31.398 -9.242,31.199 -4.069,-0.198 -6.529,-14.489 -5.494,-31.918 1.035,-17.429 5.173,-31.398 9.242,-31.199 4.069,0.199 6.528,14.489 5.494,31.918 z m -73.705,-64.856 c -48.126,20.531 -92.413,32.139 -153.977,33.907 -25.125,0.722 -28.62,-0.656 -58.216,0 -7.298,0.162 -13.235,0.604 -18.372,1.488 7.846,-7.037 17.029,-13.276 27.483,-17.121 27.944,-10.278 60.685,-17.189 90.485,-20.405 19.691,-7.184 39.16,-15.056 58.257,-23.587 7.591,-3.391 15.039,-7.095 22.324,-11.099 6.689,-3.676 23.275,-11.552 22.226,-20.734 -1.6,-14.007 -34.062,-12.93 -43.797,-12.93 -7.158,0 -45.785,-0.226 -59.291,-0.307 -3.061,-0.018 -6.058,-0.835 -8.707,-2.371 l -3.66,-2.122 c 23.216,0 46.432,0 69.649,0 15.686,0 33.835,-0.715 48.999,4.576 5.899,2.058 10.243,4.239 11.575,10.89 3.373,16.855 -25.913,30.826 -37.673,37.055 -13.239,7.013 -27.004,13.057 -40.947,18.542 14.111,0.019 27.545,0.703 39.685,1.704 11.834,-5.47 23.405,-11.51 34.586,-18.216 12.127,-7.275 24.917,-16.896 26.922,-30.895 2.548,-17.791 -14.39,-33.172 -31.88,-37.307 0,0 34.541,1.788 43.889,31.028 7.077,22.139 -14.236,41.489 -39.56,57.904 z"
             fill="#000000"
             fill-opacity="1" />
        </g>
        <path
           d="m 191.61,194.78 v 40.72 h -8.12 v -11 h -28.57 v 11 h -8.12 v -22.41 q 0,-4.9 1.69,-9.03 1.68,-4.12 4.68,-7.09 3,-2.97 7.1,-4.63 4.09,-1.65 8.93,-1.65 v 0 h 18.32 q 0.84,0 1.59,0.31 0.75,0.31 1.31,0.88 0.57,0.56 0.88,1.31 0.31,0.75 0.31,1.59 z m -36.69,18.31 v 3.29 h 28.57 V 198.81 H 169.2 q -0.37,0 -1.57,0.11 -1.21,0.11 -2.79,0.55 -1.57,0.44 -3.32,1.34 -1.75,0.91 -3.22,2.5 -1.47,1.6 -2.42,3.99 -0.96,2.39 -0.96,5.79 z m 87.28,14.29 v 8.12 h -37.06 q -0.87,0 -1.62,-0.31 -0.75,-0.31 -1.3,-0.86 -0.55,-0.55 -0.86,-1.3 -0.31,-0.75 -0.31,-1.62 v 0 -40.72 h 8.12 v 36.69 z m 40.1,-36.69 v 8.12 h -17.91 v 36.69 h -8.12 v -36.69 h -17.94 v -8.12 z m 14.15,0 v 44.81 h -8.12 v -44.81 z m 54.29,0 v 41.34 q 0,0.88 -0.33,1.63 -0.33,0.75 -0.88,1.29 -0.54,0.55 -1.29,0.86 -0.75,0.32 -1.6,0.32 v 0 q -0.75,0 -1.51,-0.29 -0.77,-0.28 -1.36,-0.9 v 0 l -29.69,-31 v 31.56 h -8.13 v -41.34 q 0,-1.25 0.71,-2.27 0.7,-1.01 1.79,-1.51 v 0 q 1.16,-0.47 2.38,-0.24 1.22,0.24 2.09,1.14 v 0 l 29.69,30.97 v -31.56 z m 54.15,33.4 v 1.57 q 0,1.5 -0.51,3.22 -0.52,1.71 -1.69,3.18 -1.17,1.47 -3.05,2.46 -1.87,0.98 -4.59,0.98 v 0 H 364.2 q -0.87,0 -1.62,-0.31 -0.75,-0.31 -1.3,-0.86 -0.54,-0.55 -0.86,-1.3 -0.31,-0.75 -0.31,-1.62 v 0 -36.63 q 0,-0.84 0.31,-1.59 0.32,-0.75 0.86,-1.31 0.55,-0.57 1.3,-0.88 0.75,-0.31 1.62,-0.31 v 0 h 27.19 q 1.5,0 3.22,0.53 1.72,0.53 3.2,1.7 1.49,1.17 2.47,3.05 0.99,1.87 0.99,4.59 v 0 1.53 q 0,2.16 -0.72,4.64 -0.72,2.49 -2.31,4.71 v 0 q 1.37,0.84 2.57,2.03 1.21,1.19 2.11,2.75 0.91,1.56 1.44,3.53 0.53,1.97 0.53,4.34 z m -8.12,1.5 v -1.5 q 0,-1.59 -0.5,-2.86 -0.5,-1.26 -1.41,-2.17 -0.91,-0.9 -2.19,-1.39 -1.28,-0.48 -2.87,-0.48 v 0 H 371.49 V 209 h 14.65 q 1.6,0 2.88,-0.48 1.28,-0.49 2.18,-1.39 0.91,-0.91 1.39,-2.18 0.49,-1.26 0.49,-2.86 v 0 -1.53 q 0,-1.75 -1.69,-1.75 v 0 h -23.15 v 28.57 h 26.81 q 0.22,0 0.53,-0.04 0.31,-0.03 0.56,-0.18 0.25,-0.16 0.44,-0.53 0.19,-0.38 0.19,-1.04 z m 59.15,-30.81 v 40.72 h -8.12 v -11 h -28.56 v 11 h -8.13 v -22.41 q 0,-4.9 1.69,-9.03 1.69,-4.12 4.69,-7.09 3,-2.97 7.09,-4.63 4.09,-1.65 8.94,-1.65 v 0 h 18.31 q 0.84,0 1.59,0.31 0.75,0.31 1.32,0.88 0.56,0.56 0.87,1.31 0.31,0.75 0.31,1.59 z m -36.68,18.31 v 3.29 h 28.56 v -17.57 h -14.28 q -0.38,0 -1.58,0.11 -1.2,0.11 -2.78,0.55 -1.58,0.44 -3.33,1.34 -1.75,0.91 -3.22,2.5 -1.47,1.6 -2.42,3.99 -0.95,2.39 -0.95,5.79 z m 89.18,9.22 v 0 q 0,2.41 -0.61,4.33 -0.61,1.92 -1.61,3.39 -1,1.47 -2.34,2.5 -1.34,1.03 -2.78,1.69 -1.44,0.66 -2.92,0.97 -1.49,0.31 -2.8,0.31 v 0 h -7.16 l -0.84,2.19 q 0.91,0 2.05,0.22 1.14,0.22 2.15,0.82 1.02,0.61 1.71,1.71 0.68,1.09 0.68,2.87 v 0 q 0,1.78 -0.89,3 -0.89,1.22 -2.31,1.97 -1.42,0.75 -3.19,1.06 -1.76,0.32 -3.51,0.32 v 0 q -1.6,0 -2.66,-0.08 -1.06,-0.08 -1.81,-0.19 -0.75,-0.11 -1.33,-0.23 -0.58,-0.13 -1.17,-0.22 v 0 -5.5 q 1.25,0.59 2.89,1 1.64,0.4 3.36,0.4 v 0 q 1.78,0 2.97,-0.36 1.19,-0.35 1.19,-1.23 v 0 q 0,-0.5 -0.38,-0.81 -0.37,-0.31 -0.94,-0.49 -0.56,-0.17 -1.18,-0.23 -0.63,-0.06 -1.13,-0.06 v 0 q -0.72,0 -1.53,0.09 -0.81,0.09 -1.44,0.28 v 0 l 2.44,-6.53 h -19.31 v -8.12 h 31.34 q 2.34,0 3.64,-1.38 1.3,-1.37 1.3,-3.69 v 0 q 0,-1.12 -0.35,-2.06 -0.34,-0.94 -0.98,-1.62 -0.64,-0.69 -1.56,-1.07 -0.92,-0.37 -2.05,-0.37 v 0 h -18.69 q -1.97,0 -4.25,-0.71 -2.28,-0.7 -4.23,-2.26 -1.95,-1.56 -3.25,-4.09 -1.3,-2.54 -1.3,-6.19 v 0 q 0,-3.66 1.3,-6.17 1.3,-2.52 3.25,-4.1 1.95,-1.58 4.23,-2.28 2.28,-0.7 4.25,-0.7 v 0 h 27.66 v 8.12 h -27.66 q -2.31,0 -3.61,1.41 -1.29,1.41 -1.29,3.72 v 0 q 0,2.34 1.29,3.7 1.3,1.36 3.61,1.36 v 0 h 18.75 q 1.32,0.03 2.78,0.36 1.47,0.33 2.93,1.02 1.45,0.68 2.76,1.73 1.31,1.05 2.33,2.52 1.02,1.46 1.61,3.37 0.59,1.91 0.59,4.31 z m 50.72,-27.53 v 40.72 h -8.12 v -11 h -28.57 v 11 h -8.12 v -22.41 q 0,-4.9 1.69,-9.03 1.68,-4.12 4.68,-7.09 3,-2.97 7.1,-4.63 4.09,-1.65 8.94,-1.65 v 0 h 18.31 q 0.84,0 1.59,0.31 0.75,0.31 1.31,0.88 0.57,0.56 0.88,1.31 0.31,0.75 0.31,1.59 z m -36.69,18.31 v 3.29 h 28.57 v -17.57 h -14.28 q -0.38,0 -1.58,0.11 -1.21,0.11 -2.78,0.55 -1.58,0.44 -3.33,1.34 -1.75,0.91 -3.22,2.5 -1.47,1.6 -2.42,3.99 -0.96,2.39 -0.96,5.79 z m 70.07,0 23.03,22.41 h -11.53 l -18.28,-18.31 h -5.72 V 209 h 5.72 l 18.28,-18.31 h 11.53 z m -15.75,-22.4 v 44.81 h -8.13 v -44.81 z"
           data-element="company-name"
           data-text-path=""
           data-text="ALTINBAŞAK"
           data-font-family="Audiowide"
           fill="#000000"
           fill-opacity="1"
           id="path8" />
        <path
           d="m 254.42,280.57 v 0 q 0,1.08 -0.27,1.94 -0.27,0.87 -0.72,1.53 -0.45,0.66 -1.06,1.12 -0.6,0.47 -1.25,0.76 -0.65,0.3 -1.32,0.44 -0.66,0.14 -1.25,0.14 v 0 h -14.11 v -3.66 h 14.11 q 1.05,0 1.63,-0.61 0.59,-0.62 0.59,-1.66 v 0 q 0,-0.51 -0.16,-0.93 -0.15,-0.42 -0.44,-0.73 -0.29,-0.31 -0.7,-0.48 -0.42,-0.17 -0.92,-0.17 v 0 h -8.41 q -0.89,0 -1.92,-0.32 -1.02,-0.31 -1.9,-1.02 -0.88,-0.7 -1.46,-1.84 -0.59,-1.14 -0.59,-2.78 v 0 q 0,-1.65 0.59,-2.78 0.58,-1.13 1.46,-1.84 0.88,-0.71 1.9,-1.03 1.03,-0.32 1.92,-0.32 v 0 h 12.44 v 3.66 h -12.44 q -1.04,0 -1.63,0.63 -0.58,0.64 -0.58,1.68 v 0 q 0,1.05 0.58,1.66 0.59,0.61 1.63,0.61 v 0 h 8.41 0.02 q 0.59,0.02 1.26,0.17 0.66,0.14 1.31,0.45 0.65,0.31 1.25,0.78 0.59,0.48 1.04,1.14 0.46,0.66 0.73,1.52 0.26,0.85 0.26,1.94 z m 22.8,-14.24 v 18.33 q 0,0.39 -0.14,0.73 -0.14,0.34 -0.39,0.58 -0.26,0.25 -0.6,0.39 -0.33,0.14 -0.71,0.14 v 0 h -8.24 q -1.17,0 -2.37,-0.25 -1.19,-0.26 -2.31,-0.78 -1.12,-0.53 -2.1,-1.35 -0.99,-0.81 -1.72,-1.93 -0.74,-1.12 -1.16,-2.56 -0.43,-1.44 -0.43,-3.21 v 0 -10.09 h 3.66 v 10.09 q 0,1.54 0.43,2.61 0.43,1.07 1.09,1.79 0.66,0.72 1.45,1.12 0.78,0.41 1.49,0.61 0.72,0.2 1.26,0.24 0.54,0.05 0.71,0.05 v 0 h 6.42 v -16.51 z m -11.53,-3.13 v 0 q 0,0.38 -0.15,0.71 -0.15,0.33 -0.39,0.58 -0.25,0.24 -0.58,0.38 -0.33,0.14 -0.7,0.14 v 0 q -0.38,0 -0.71,-0.14 -0.33,-0.14 -0.57,-0.38 -0.25,-0.25 -0.39,-0.58 -0.14,-0.33 -0.14,-0.71 v 0 q 0,-0.37 0.14,-0.7 0.14,-0.33 0.39,-0.57 0.24,-0.25 0.57,-0.4 0.33,-0.15 0.71,-0.15 v 0 q 0.37,0 0.7,0.15 0.33,0.15 0.58,0.4 0.24,0.24 0.39,0.57 0.15,0.33 0.15,0.7 z m 6.51,0 v 0 q 0,0.38 -0.15,0.71 -0.15,0.33 -0.39,0.58 -0.25,0.24 -0.58,0.38 -0.33,0.14 -0.69,0.14 v 0 q -0.38,0 -0.72,-0.14 -0.33,-0.14 -0.57,-0.38 -0.25,-0.25 -0.39,-0.58 -0.14,-0.33 -0.14,-0.71 v 0 q 0,-0.37 0.14,-0.7 0.14,-0.33 0.39,-0.57 0.24,-0.25 0.57,-0.4 0.34,-0.15 0.72,-0.15 v 0 q 0.36,0 0.69,0.15 0.33,0.15 0.58,0.4 0.24,0.24 0.39,0.57 0.15,0.33 0.15,0.7 z m 29.42,7.58 v 2.33 q 0,1.25 -0.31,2.24 -0.31,0.98 -0.84,1.74 -0.53,0.75 -1.21,1.28 -0.69,0.54 -1.45,0.88 -0.75,0.35 -1.51,0.5 -0.77,0.15 -1.45,0.15 v 0 l 7.64,6.6 h -5.65 l -7.63,-6.6 h -2.62 v -3.65 h 8.26 q 0.69,-0.06 1.26,-0.29 0.57,-0.23 0.99,-0.63 0.41,-0.39 0.64,-0.94 0.22,-0.56 0.22,-1.28 v 0 -2.3 q 0,-0.31 -0.08,-0.47 -0.07,-0.17 -0.19,-0.24 -0.12,-0.08 -0.26,-0.1 -0.13,-0.01 -0.24,-0.01 v 0 h -12.07 v 16.51 h -3.65 v -18.32 q 0,-0.38 0.14,-0.72 0.14,-0.34 0.38,-0.59 0.25,-0.25 0.59,-0.39 0.33,-0.15 0.73,-0.15 v 0 h 13.88 q 1.22,0 2.07,0.45 0.84,0.44 1.37,1.11 0.52,0.67 0.76,1.44 0.23,0.77 0.23,1.45 z m 23.43,-4.45 v 18.33 q 0,0.39 -0.14,0.73 -0.15,0.34 -0.4,0.58 -0.25,0.25 -0.59,0.39 -0.34,0.14 -0.72,0.14 v 0 h -8.24 q -1.16,0 -2.36,-0.25 -1.19,-0.26 -2.31,-0.78 -1.12,-0.53 -2.1,-1.35 -0.99,-0.81 -1.73,-1.93 -0.74,-1.12 -1.16,-2.56 -0.42,-1.44 -0.42,-3.21 v 0 -10.09 h 3.66 v 10.09 q 0,1.54 0.43,2.61 0.42,1.07 1.09,1.79 0.66,0.72 1.44,1.12 0.79,0.41 1.5,0.61 0.71,0.2 1.25,0.24 0.54,0.05 0.71,0.05 v 0 h 6.43 v -16.51 z m -11.54,-3.13 v 0 q 0,0.38 -0.14,0.71 -0.15,0.33 -0.4,0.58 -0.24,0.24 -0.57,0.38 -0.33,0.14 -0.7,0.14 v 0 q -0.38,0 -0.71,-0.14 -0.33,-0.14 -0.58,-0.38 -0.24,-0.25 -0.38,-0.58 -0.14,-0.33 -0.14,-0.71 v 0 q 0,-0.37 0.14,-0.7 0.14,-0.33 0.38,-0.57 0.25,-0.25 0.58,-0.4 0.33,-0.15 0.71,-0.15 v 0 q 0.37,0 0.7,0.15 0.33,0.15 0.57,0.4 0.25,0.24 0.4,0.57 0.14,0.33 0.14,0.7 z m 6.52,0 v 0 q 0,0.38 -0.15,0.71 -0.15,0.33 -0.4,0.58 -0.24,0.24 -0.57,0.38 -0.33,0.14 -0.7,0.14 v 0 q -0.38,0 -0.71,-0.14 -0.33,-0.14 -0.58,-0.38 -0.24,-0.25 -0.38,-0.58 -0.14,-0.33 -0.14,-0.71 v 0 q 0,-0.37 0.14,-0.7 0.14,-0.33 0.38,-0.57 0.25,-0.25 0.58,-0.4 0.33,-0.15 0.71,-0.15 v 0 q 0.37,0 0.7,0.15 0.33,0.15 0.57,0.4 0.25,0.24 0.4,0.57 0.15,0.33 0.15,0.7 z m 27.32,19.64 v 3.66 h -13.19 q -0.51,0 -1.09,-0.12 -0.58,-0.12 -1.15,-0.37 -0.57,-0.26 -1.09,-0.66 -0.52,-0.4 -0.93,-0.97 -0.4,-0.57 -0.64,-1.32 -0.23,-0.75 -0.23,-1.69 v 0 -9.9 q 0,-0.51 0.12,-1.09 0.11,-0.59 0.37,-1.16 0.25,-0.57 0.66,-1.09 0.41,-0.52 0.98,-0.92 0.57,-0.4 1.31,-0.64 0.75,-0.24 1.69,-0.24 v 0 h 13.19 v 3.66 h -13.19 q -0.72,0 -1.1,0.38 -0.38,0.38 -0.38,1.13 v 0 9.87 q 0,0.7 0.39,1.09 0.39,0.38 1.09,0.38 v 0 z m 23.22,-16.51 v 18.33 q 0,0.39 -0.14,0.73 -0.14,0.34 -0.4,0.58 -0.25,0.25 -0.59,0.39 -0.34,0.14 -0.72,0.14 v 0 h -8.24 q -1.16,0 -2.36,-0.25 -1.19,-0.26 -2.31,-0.78 -1.12,-0.53 -2.1,-1.35 -0.99,-0.81 -1.73,-1.93 -0.74,-1.12 -1.16,-2.56 -0.42,-1.44 -0.42,-3.21 v 0 -10.09 h 3.66 v 10.09 q 0,1.54 0.43,2.61 0.42,1.07 1.09,1.79 0.66,0.72 1.44,1.12 0.79,0.41 1.5,0.61 0.71,0.2 1.25,0.24 0.54,0.05 0.71,0.05 v 0 h 6.43 v -16.51 z m -11.53,-3.13 v 0 q 0,0.38 -0.15,0.71 -0.15,0.33 -0.4,0.58 -0.24,0.24 -0.57,0.38 -0.33,0.14 -0.7,0.14 v 0 q -0.38,0 -0.71,-0.14 -0.33,-0.14 -0.58,-0.38 -0.24,-0.25 -0.38,-0.58 -0.14,-0.33 -0.14,-0.71 v 0 q 0,-0.37 0.14,-0.7 0.14,-0.33 0.38,-0.57 0.25,-0.25 0.58,-0.4 0.33,-0.15 0.71,-0.15 v 0 q 0.37,0 0.7,0.15 0.33,0.15 0.57,0.4 0.25,0.24 0.4,0.57 0.15,0.33 0.15,0.7 z m 6.51,0 v 0 q 0,0.38 -0.15,0.71 -0.15,0.33 -0.4,0.58 -0.24,0.24 -0.57,0.38 -0.33,0.14 -0.7,0.14 v 0 q -0.38,0 -0.71,-0.14 -0.33,-0.14 -0.57,-0.38 -0.25,-0.25 -0.39,-0.58 -0.14,-0.33 -0.14,-0.71 v 0 q 0,-0.37 0.14,-0.7 0.14,-0.33 0.39,-0.57 0.24,-0.25 0.57,-0.4 0.33,-0.15 0.71,-0.15 v 0 q 0.37,0 0.7,0.15 0.33,0.15 0.57,0.4 0.25,0.24 0.4,0.57 0.15,0.33 0.15,0.7 z m 29.4,13.22 10.36,10.08 h -5.18 l -8.23,-8.24 h -2.57 v -3.69 h 2.57 l 8.23,-8.24 h 5.18 z m -7.09,-10.09 v 20.17 h -3.65 v -20.17 z m 39.5,0 v 18.33 q 0,0.39 -0.14,0.73 -0.14,0.34 -0.39,0.58 -0.25,0.25 -0.59,0.39 -0.34,0.14 -0.72,0.14 v 0 h -8.24 q -1.17,0 -2.36,-0.25 -1.2,-0.26 -2.31,-0.78 -1.12,-0.53 -2.11,-1.35 -0.98,-0.81 -1.72,-1.93 -0.74,-1.12 -1.16,-2.56 -0.42,-1.44 -0.42,-3.21 v 0 -10.09 h 3.66 v 10.09 q 0,1.54 0.42,2.61 0.43,1.07 1.09,1.79 0.67,0.72 1.45,1.12 0.79,0.41 1.5,0.61 0.71,0.2 1.25,0.24 0.54,0.05 0.71,0.05 v 0 h 6.43 v -16.51 z m 24.4,4.45 v 2.33 q 0,1.25 -0.31,2.24 -0.31,0.98 -0.83,1.74 -0.53,0.75 -1.22,1.28 -0.69,0.54 -1.44,0.88 -0.75,0.35 -1.52,0.5 -0.77,0.15 -1.44,0.15 v 0 l 7.64,6.6 h -5.66 l -7.62,-6.6 h -2.63 v -3.65 H 445 q 0.69,-0.06 1.26,-0.29 0.57,-0.23 0.98,-0.63 0.42,-0.39 0.64,-0.94 0.23,-0.56 0.23,-1.28 v 0 -2.3 q 0,-0.31 -0.08,-0.47 -0.08,-0.17 -0.2,-0.24 -0.12,-0.08 -0.25,-0.1 -0.13,-0.01 -0.25,-0.01 v 0 h -12.06 v 16.51 h -3.66 v -18.32 q 0,-0.38 0.14,-0.72 0.14,-0.34 0.39,-0.59 0.25,-0.25 0.58,-0.39 0.34,-0.15 0.73,-0.15 v 0 h 13.88 q 1.23,0 2.07,0.45 0.84,0.44 1.37,1.11 0.53,0.67 0.76,1.44 0.23,0.77 0.23,1.45 z m 23.05,9.79 v 0 q 0,1.08 -0.27,1.94 -0.28,0.87 -0.73,1.53 -0.45,0.66 -1.05,1.12 -0.61,0.47 -1.25,0.76 -0.65,0.3 -1.32,0.44 -0.67,0.14 -1.26,0.14 v 0 h -14.1 v -3.66 h 14.1 q 1.06,0 1.64,-0.61 0.59,-0.62 0.59,-1.66 v 0 q 0,-0.51 -0.16,-0.93 -0.15,-0.42 -0.44,-0.73 -0.29,-0.31 -0.71,-0.48 -0.41,-0.17 -0.92,-0.17 v 0 h -8.41 q -0.88,0 -1.91,-0.32 -1.02,-0.31 -1.9,-1.02 -0.88,-0.7 -1.47,-1.84 -0.58,-1.14 -0.58,-2.78 v 0 q 0,-1.65 0.58,-2.78 0.59,-1.13 1.47,-1.84 0.88,-0.71 1.9,-1.03 1.03,-0.32 1.91,-0.32 v 0 h 12.45 v 3.66 h -12.45 q -1.04,0 -1.62,0.63 -0.58,0.64 -0.58,1.68 v 0 q 0,1.05 0.58,1.66 0.58,0.61 1.62,0.61 v 0 h 8.41 0.03 q 0.59,0.02 1.25,0.17 0.66,0.14 1.32,0.45 0.65,0.31 1.24,0.78 0.59,0.48 1.05,1.14 0.46,0.66 0.72,1.52 0.27,0.85 0.27,1.94 z m 22.8,-14.24 v 18.33 q 0,0.39 -0.14,0.73 -0.14,0.34 -0.4,0.58 -0.25,0.25 -0.59,0.39 -0.34,0.14 -0.72,0.14 v 0 h -8.24 q -1.16,0 -2.36,-0.25 -1.19,-0.26 -2.31,-0.78 -1.12,-0.53 -2.1,-1.35 -0.99,-0.81 -1.73,-1.93 -0.73,-1.12 -1.16,-2.56 -0.42,-1.44 -0.42,-3.21 v 0 -10.09 h 3.66 v 10.09 q 0,1.54 0.43,2.61 0.43,1.07 1.09,1.79 0.66,0.72 1.44,1.12 0.79,0.41 1.5,0.61 0.71,0.2 1.25,0.24 0.55,0.05 0.71,0.05 v 0 h 6.43 v -16.51 z"
           data-element="slogan"
           data-text-path=""
           data-text="SÜRÜCÜ KURSU"
           data-font-family="Audiowide"
           fill="#000000"
           fill-opacity="1"
           id="path10" />
      </g>
    </g>
  </g>
</svg>
